<svg xmlns="http://www.w3.org/2000/svg" xmlns:xlink="http://www.w3.org/1999/xlink" width="100%" zoomAndPan="magnify" viewBox="0 0 600 542.249967" height="auto" preserveAspectRatio="xMidYMid meet" version="1.0"><defs><clipPath id="05ee0b3114"><path d="M 1.859375 1.230469 L 599 1.230469 L 599 541 L 1.859375 541 Z M 1.859375 1.230469 " clip-rule="nonzero"/></clipPath><clipPath id="62e161976f"><path d="M 1.859375 52.15625 L 1.859375 225.910156 C 1.859375 253.933594 24.636719 276.714844 52.78125 276.714844 L 109.667969 276.714844 C 137.8125 276.714844 160.589844 299.492188 160.589844 327.636719 L 160.589844 489.464844 C 160.589844 517.609375 183.367188 540.386719 211.511719 540.386719 L 339.832031 540.386719 C 352.59375 540.386719 364.996094 535.5 374.414062 526.910156 L 581.921875 334.910156 C 592.296875 325.25 598.257812 311.773438 598.257812 297.582031 L 598.257812 52.15625 C 598.140625 24.011719 575.363281 1.230469 547.21875 1.230469 L 52.78125 1.230469 C 24.636719 1.230469 1.859375 24.011719 1.859375 52.15625 Z M 1.859375 52.15625 " clip-rule="nonzero"/></clipPath></defs><g clip-path="url(#05ee0b3114)"><g clip-path="url(#62e161976f)"><path fill="#b74e91" d="M 1.859375 1.230469 L 598.140625 1.230469 L 598.140625 540.269531 L 1.859375 540.269531 Z M 1.859375 1.230469 " fill-opacity="1" fill-rule="nonzero"/></g></g></svg>
