<svg width="146" height="33" viewBox="0 0 146 33" fill="none" xmlns="http://www.w3.org/2000/svg">
<path d="M78.1776 9.62693C78.1776 11.6243 76.5521 13.2466 74.5509 13.2466C72.5498 13.2466 70.9243 11.6243 70.9243 9.62693V0.00338745H67.792V9.62693C67.792 13.3453 70.8254 16.3729 74.5509 16.3729C78.2765 16.3729 81.3099 13.3453 81.3099 9.62693V0.00338745H78.1776V9.62693Z" fill="#BEAF87"/>
<path d="M8.19455 3.12559C9.53526 3.12559 10.7573 3.65058 11.667 4.5032L13.4664 1.91771C12.0427 0.721675 10.2036 0.00326538 8.19851 0.00326538C3.67015 0.00326538 0 3.66637 0 8.18603C0 12.7057 3.67015 16.3688 8.19851 16.3688C10.2036 16.3688 12.0427 15.6504 13.4664 14.4544L11.667 11.8649C10.7613 12.7175 9.53922 13.2425 8.19455 13.2425C5.40239 13.2425 3.12832 10.9728 3.12832 8.18603C3.12832 5.39529 5.40239 3.12559 8.19455 3.12559Z" fill="#BEAF87"/>
<path d="M43.5116 11.0006L35.8826 0.00338745H32.7503V16.365H35.8826V5.36778L43.5116 16.365H46.6399V0.00338745H43.5116V11.0006Z" fill="#BEAF87"/>
<path d="M50.8084 0.00338745V3.12571H55.6492V16.365H58.7775V3.12571H63.6183V0.00338745H50.8084Z" fill="#BEAF87"/>
<path d="M137.168 0.00338745V3.12571H138.872V16.365H142.005V0.00338745H137.168Z" fill="#BEAF87"/>
<path d="M17.6388 0.00338745V16.365H28.5702V13.2427H20.7711V9.74534H27.0357V6.62302H20.7711V3.12571H28.5702V0.00338745H17.6388Z" fill="#BEAF87"/>
<path d="M98.0629 5.49465C98.0629 2.46707 95.595 0 92.5577 0H85.4784V16.3655H88.6107V10.9893H90.6079L94.3374 16.3655H98.0589L94.1634 10.7485C96.4216 10.0617 98.0629 7.96567 98.0629 5.49465ZM92.5616 7.86304H88.6146V3.12627H92.5616C93.8707 3.12627 94.9346 4.18809 94.9346 5.49465C94.9346 6.80121 93.8707 7.86304 92.5616 7.86304Z" fill="#BEAF87"/>
<path d="M112.407 0.00338745L107.815 6.61907L103.223 0.00338745H99.5019L106.249 9.72956V16.365H109.381V9.72956L116.128 0.00338745H112.407Z" fill="#BEAF87"/>
<path d="M132.734 8.17882L132.817 8.0604C133.375 7.23541 133.699 6.24464 133.699 5.17492C133.699 4.75256 133.648 4.34599 133.553 3.95126C133.003 1.6855 130.955 0 128.519 0C125.655 0 123.338 2.31707 123.338 5.17097C123.338 5.23413 123.338 5.30123 123.342 5.36439H126.478C126.474 5.30123 126.47 5.23808 126.47 5.17097C126.47 4.04204 127.391 3.12232 128.522 3.12232C129.654 3.12232 130.626 3.97494 130.575 5.17097C130.551 5.69597 130.093 6.50516 129.915 6.76174C129.741 7.01831 123.255 16.3616 123.255 16.3616H134.012V13.2353H129.23L132.734 8.17882Z" fill="#BEAF87"/>
<path d="M144.648 13.6382C144.877 13.6382 145.099 13.6974 145.312 13.8119C145.53 13.9303 145.696 14.0961 145.818 14.3132C145.937 14.5303 146 14.7553 146 14.9921C146 15.225 145.941 15.45 145.822 15.6632C145.704 15.8763 145.538 16.046 145.32 16.1645C145.106 16.2829 144.881 16.3421 144.648 16.3421C144.414 16.3421 144.189 16.2829 143.975 16.1645C143.762 16.046 143.592 15.8803 143.473 15.6632C143.354 15.45 143.295 15.225 143.295 14.9921C143.295 14.7553 143.354 14.5303 143.477 14.3132C143.6 14.0961 143.766 13.9303 143.983 13.8119C144.197 13.6974 144.418 13.6382 144.648 13.6382ZM144.648 13.8632C144.458 13.8632 144.272 13.9105 144.094 14.0092C143.916 14.1079 143.774 14.2461 143.671 14.4276C143.568 14.6092 143.521 14.7987 143.521 14.9921C143.521 15.1855 143.572 15.375 143.671 15.5526C143.77 15.7303 143.908 15.8684 144.09 15.971C144.268 16.0697 144.458 16.121 144.652 16.121C144.845 16.121 145.035 16.0697 145.213 15.971C145.391 15.8724 145.53 15.7342 145.632 15.5526C145.731 15.375 145.783 15.1895 145.783 14.9921C145.783 14.7947 145.731 14.6092 145.632 14.4276C145.53 14.2461 145.391 14.1079 145.209 14.0092C145.019 13.9105 144.838 13.8632 144.648 13.8632ZM144.054 15.7381V14.2855H144.557C144.727 14.2855 144.849 14.2974 144.928 14.325C145.004 14.3526 145.067 14.4 145.11 14.4671C145.154 14.5342 145.178 14.6053 145.178 14.6803C145.178 14.7868 145.138 14.8776 145.063 14.9566C144.988 15.0355 144.885 15.079 144.758 15.0908C144.81 15.1105 144.853 15.1382 144.881 15.1658C144.94 15.225 145.012 15.3197 145.095 15.4539L145.273 15.7381H144.984L144.853 15.5092C144.751 15.3276 144.671 15.2171 144.608 15.1697C144.565 15.1342 144.501 15.1184 144.418 15.1184H144.28V15.7342L144.054 15.7381ZM144.288 14.9211H144.573C144.711 14.9211 144.802 14.9013 144.853 14.8618C144.905 14.8224 144.928 14.7671 144.928 14.7C144.928 14.6566 144.917 14.6171 144.893 14.5855C144.869 14.55 144.838 14.5263 144.794 14.5105C144.751 14.4947 144.671 14.4869 144.557 14.4869H144.288V14.9211Z" fill="#BEAF87"/>
<path d="M101.151 31.4484V32.7392H95.0925V24.9432H101.056V26.234H96.5716V28.1484H100.867V29.4392H96.5716V31.4445H101.151V31.4484Z" fill="#BEAF87"/>
<path d="M102.238 29.9327C102.238 28.2077 103.575 26.9919 105.375 26.9919C106.308 26.9919 107.127 27.3156 107.68 27.884L106.688 28.7524C106.403 28.4169 105.944 28.2077 105.375 28.2077C104.37 28.2077 103.67 28.9103 103.67 29.9327C103.67 30.955 104.358 31.6577 105.398 31.6577C105.932 31.6577 106.391 31.4682 106.735 31.0577L107.728 31.9261C107.17 32.5379 106.344 32.8853 105.375 32.8853C103.563 32.8853 102.238 31.6695 102.238 29.9327Z" fill="#BEAF87"/>
<path d="M114.427 27.1379V32.7392H113.197L113.126 31.9931C112.746 32.5497 112.098 32.8852 111.315 32.8852C110.014 32.8852 109.009 32.005 109.009 30.6787V27.1379H110.393V30.5129C110.393 31.2708 110.998 31.6694 111.671 31.6694C112.359 31.6694 113.055 31.2116 113.055 30.3905V27.1379H114.427Z" fill="#BEAF87"/>
<path d="M121.302 29.3445V32.7392H120.084L120.001 31.9379C119.526 32.5616 118.688 32.8853 117.905 32.8853C116.841 32.8853 115.821 32.2734 115.821 31.1129C115.821 29.834 117.062 29.3327 118.221 29.3327C118.731 29.3327 119.356 29.3998 119.926 29.5537V29.3761C119.926 28.563 119.451 28.1604 118.53 28.1604C117.925 28.1604 117.264 28.338 116.73 28.7169L116.184 27.7696C116.801 27.3235 117.711 26.9919 118.775 26.9919C120.416 26.9919 121.302 27.7735 121.302 29.3445ZM119.93 30.4577C119.443 30.3235 118.925 30.2564 118.474 30.2564C117.774 30.2564 117.232 30.4774 117.232 31.0458C117.232 31.5235 117.636 31.78 118.237 31.78C119.067 31.78 119.93 31.2708 119.93 30.4577Z" fill="#BEAF87"/>
<path d="M128.828 24.3865V32.739H127.598L127.527 31.9496C127.1 32.5298 126.416 32.8851 125.55 32.8851C123.964 32.8851 122.639 31.6693 122.639 29.9246C122.639 28.1996 123.952 26.9957 125.597 26.9957C126.376 26.9957 127.029 27.2641 127.444 27.7299V24.3905H128.828V24.3865ZM127.563 29.9325C127.563 28.8983 126.851 28.2075 125.811 28.2075C124.77 28.2075 124.07 28.9102 124.07 29.9325C124.07 30.9667 124.77 31.6575 125.811 31.6575C126.839 31.6575 127.563 30.9904 127.563 29.9325Z" fill="#BEAF87"/>
<path d="M130.177 29.9327C130.177 28.2077 131.525 26.9919 133.348 26.9919C135.172 26.9919 136.52 28.1959 136.52 29.9327C136.52 31.6813 135.172 32.8853 133.348 32.8853C131.525 32.8853 130.177 31.6695 130.177 29.9327ZM135.101 29.9327C135.101 28.9064 134.389 28.2077 133.348 28.2077C132.308 28.2077 131.608 28.9103 131.608 29.9327C131.608 30.9669 132.308 31.6577 133.348 31.6577C134.389 31.6577 135.101 30.9669 135.101 29.9327Z" fill="#BEAF87"/>
<path d="M141.892 27.1143L141.5 28.3498C141.275 28.2709 141.037 28.2156 140.8 28.2156C140.009 28.2156 139.25 28.7169 139.25 29.6406V32.7353H137.866V27.1341H139.096L139.179 27.959C139.582 27.359 140.266 26.9919 141.073 26.9919C141.358 26.9919 141.643 27.0393 141.892 27.1143Z" fill="#BEAF87"/>
</svg>
