<svg width="141" height="21" viewBox="0 0 141 21" fill="none" xmlns="http://www.w3.org/2000/svg">
<path d="M20.3722 7.18253V7.03599C20.3722 5.13122 19.6175 3.51951 18.1081 2.42053C16.41 1.17512 13.8629 0.515755 10.8439 0.515755H0.749756V20.3693H6.5046V13.9224H9.80647L14.712 20.3693H21.2213L15.5609 13.0433C17.7307 12.2375 20.3722 10.6259 20.3722 7.18253ZM14.6174 7.25579C14.6174 9.0873 13.0136 10.1861 10.3722 10.1861H6.50422V4.39857H10.3722C13.108 4.39857 14.6174 5.35096 14.6174 7.25579ZM101.222 0.442657L91.599 20.3695H97.3538L99.335 16.1204H108.297L110.278 20.3695H116.222L106.599 0.442657H101.222ZM106.505 12.3841H101.033L103.769 6.30357L106.505 12.3841ZM132.92 10.2595L140.561 0.589159H134.24L129.712 6.88949L125.278 0.589159H118.675L126.222 10.3329L118.297 20.4427H124.618L129.429 13.776L134.241 20.4427H140.75L132.92 10.2595ZM32.1636 16.5598V12.3107H42.4467V8.50126H32.1636V4.3986H43.7674V0.515787H26.5032V20.3693H37.2577L39.8993 16.5598H32.1636ZM81.2189 0.515787L75.464 6.96259L69.6151 0.515787H69.5205L63.6716 9.16054V20.3693H69.2374V8.06156L75.275 14.142V14.2153H75.5581L81.6902 8.06145V20.3692H87.2561V0.515676L81.2189 0.515787Z" fill="#DC1C2E"/>
<path d="M56.6084 0.513458L43.118 20.3667H50.0991L63.5894 0.513458H56.6084Z" fill="#003DA5"/>
</svg>
