<?xml version="1.0" encoding="utf-8"?>
<!-- Generator: Adobe Illustrator 24.0.2, SVG Export Plug-In . SVG Version: 6.00 Build 0)  -->
<svg version="1.1" id="Capa_1" xmlns="http://www.w3.org/2000/svg" xmlns:xlink="http://www.w3.org/1999/xlink" x="0px" y="0px"
	 viewBox="0 0 2339 392" style="enable-background:new 0 0 2339 392;" xml:space="preserve">
<style type="text/css">
	.st0{fill:#1D1D1B;}
</style>
<g>
	<g>
		<path class="st0" d="M298.6,69c-20.1-20-44.5-30-73.1-30h-13.6v314.7h13.6V239.2h3.3c25.1,0,48-9.8,68.8-29.4
			c20.8-19.6,31.2-42.9,31.2-70.1C328.8,112.6,318.7,89,298.6,69z M289.3,201.4c-17.2,17.3-37.4,26-60.5,26h-3.3V51.2h3.3
			c22.6,0,42.6,8.8,60.1,26.4c17.5,17.6,26.2,38.3,26.2,62.1C315.1,163.5,306.5,184,289.3,201.4z"/>
		<path class="st0" d="M328.8,353.7h12.5l56.5-117.3h162l57.4,117.3h14.1l-151.5-315L328.8,353.7z M403.1,224.5L478.6,67L555,224.5
			H403.1z"/>
		<polygon class="st0" points="644.9,39 644.9,51.2 781.3,51.2 644.9,353.7 800.7,353.7 800.7,341.5 665.2,341.5 801.9,39 		"/>
		<polygon class="st0" points="815.9,52 864.6,52 864.6,353.7 878.3,353.7 878.3,39.8 821.4,39.8 		"/>
		<path class="st0" d="M1172.6,84.8c-30.5-31-67.2-46.5-110-46.5c-42.8,0-79.5,15.6-110,46.7c-30.5,31.1-45.7,67.9-45.7,110.4
			c0,42.5,15.1,79.5,45.1,111c30.1,31.5,65.9,47.3,107.4,47.3h6c27.3,0,52.8-7.3,76.4-21.8c23.7-14.5,42.3-33.9,56-58.1
			c13.6-24.2,20.5-50,20.5-77.4C1218.3,152.9,1203.1,115.7,1172.6,84.8z M1163.1,299.1c-28,28.5-61.5,42.8-100.7,42.8
			c-39.2,0-72.7-14.3-100.5-42.8c-27.8-28.5-41.7-62.8-41.7-102.9c0-40.1,13.9-74.4,41.7-103.1c27.8-28.7,61.3-43,100.5-43
			c39.2,0,72.8,14.3,100.7,43c28,28.7,41.9,63,41.9,103.1C1205.1,236.3,1191.1,270.6,1163.1,299.1z"/>
		<path class="st0" d="M176.8,229.6c-5.2-10.8-11.8-19.9-19.9-27.3c-8.1-7.4-17.1-14.4-27.1-21c-10-6.6-19.9-12.8-29.9-18.6
			C90,156.9,81,151,73,145.1c-18.6-14-27.9-29.5-27.9-46.5v-2c0-14.3,4.6-25.5,13.7-33.8c9.2-8.2,20.2-12.3,33.3-12.3
			c13,0,24.8,3.2,35.3,9.7c7.7,4.7,14.1,10.8,19.5,18.1l5.4-12C138,47.9,118.6,38.7,94.1,38.7c-17.5,0-32.3,5-44.2,15
			C38,63.7,32,78.1,32,97v2.8c0,12.1,3.4,23.3,10.4,33.6c6.9,10.3,15.5,18.7,25.9,25.5c10.4,6.7,21.6,14,33.9,21.8
			c12.2,7.8,23.5,15.3,33.9,22.4c10.4,7.1,19,16.3,25.9,27.5c6.9,11.2,10.4,23.5,10.4,37v2.4c0,21.6-7.3,38.8-21.9,51.8
			c-14.6,12.9-31.9,19.4-51.8,19.4c-19.9,0-36.6-4.8-50-14.4c-3.7-2.6-7.1-5.5-10.2-8.5l-5.1,11.2C49.8,345.2,70.5,353,95.3,353
			c25.2,0,46.4-7.5,63.5-22.7c17.1-15.1,25.7-35.5,25.7-61.1v-4C184.6,252.3,182,240.4,176.8,229.6z"/>
	</g>
	<g>
		<g>
			<path class="st0" d="M2260.2,353.7c-12.5,0-25-5-34.3-14.9l-172.6-185l-172.5,185c-17.6,18.9-47.3,20-66.2,2.3
				c-18.9-17.6-20-47.3-2.3-66.2l206.7-221.7c8.9-9.5,21.3-14.9,34.3-14.9c13,0,25.4,5.4,34.3,14.9l206.8,221.7
				c17.7,18.9,16.6,48.6-2.3,66.2C2283.1,349.5,2271.6,353.7,2260.2,353.7z"/>
		</g>
		<g>
			<path class="st0" d="M1632.5,353.7c-11.4,0-22.9-4.2-31.9-12.6c-18.9-17.6-20-47.3-2.3-66.2L1805,53.2
				c17.6-18.9,47.3-20,66.2-2.3c18.9,17.6,20,47.3,2.3,66.2l-206.7,221.7C1657.6,348.7,1645.1,353.7,1632.5,353.7z"/>
		</g>
		<g>
			<path class="st0" d="M1418.5,353.7c-11.4,0-22.9-4.2-31.9-12.6c-18.9-17.6-20-47.3-2.3-66.2L1591,53.2
				c17.6-18.9,47.3-20,66.2-2.3c18.9,17.6,20,47.3,2.3,66.2l-206.7,221.7C1443.6,348.7,1431,353.7,1418.5,353.7z"/>
		</g>
	</g>
</g>
</svg>
