<?xml version="1.0" encoding="utf-8"?>
<!-- Generator: Adobe Illustrator 24.0.2, SVG Export Plug-In . SVG Version: 6.00 Build 0)  -->
<svg version="1.1" id="Capa_1" xmlns="http://www.w3.org/2000/svg" xmlns:xlink="http://www.w3.org/1999/xlink" x="0px" y="0px"
	 viewBox="0 0 1746 521" style="enable-background:new 0 0 1746 521;" xml:space="preserve">
<style type="text/css">
	.st0{fill:#1D1D1B;}
</style>
<g>
	<path class="st0" d="M405.1,78.5c-28.8-28.7-63.8-43-104.8-43h-19.5v451h19.5V322.3h4.7c35.9,0,68.8-14,98.6-42.1
		c29.8-28.1,44.7-61.5,44.7-100.4C448.3,141,433.9,107.2,405.1,78.5z M391.7,268.2c-24.7,24.9-53.6,37.3-86.7,37.3h-4.7V53h4.7
		c32.4,0,61.1,12.6,86.2,37.9c25.1,25.3,37.6,54.9,37.6,89C428.7,213.9,416.4,243.4,391.7,268.2z"/>
	<path class="st0" d="M448.3,486.5h17.9l81-168.1h232.1l82.2,168.1h20.3l-217-451.4L448.3,486.5z M554.8,301.4L663,75.7l109.4,225.7
		H554.8z"/>
	<polygon class="st0" points="901.3,35.5 901.3,53 1096.7,53 901.3,486.5 1124.6,486.5 1124.6,469.1 930.3,469.1 1126.3,35.5 	"/>
	<polygon class="st0" points="1146.3,54.2 1216.2,54.2 1216.2,486.5 1235.7,486.5 1235.7,36.7 1154.2,36.7 	"/>
	<path class="st0" d="M1657.4,101.1c-43.7-44.4-96.2-66.6-157.6-66.6c-61.3,0-113.9,22.3-157.6,66.9
		c-43.7,44.6-65.6,97.3-65.6,158.3c0,60.9,21.6,114,64.7,159.1c43.1,45.2,94.4,67.7,153.8,67.7h8.6c39.1,0,75.6-10.4,109.6-31.2
		c33.9-20.8,60.7-48.6,80.2-83.2c19.6-34.6,29.3-71.6,29.3-111C1723,198.8,1701.1,145.5,1657.4,101.1z M1643.9,408.2
		c-40.1,40.9-88.2,61.3-144.3,61.3c-56.2,0-104.2-20.4-144.1-61.3c-39.9-40.9-59.8-90-59.8-147.5c0-57.4,19.9-106.7,59.8-147.7
		c39.9-41.1,87.9-61.6,144.1-61.6c56.2,0,104.3,20.5,144.3,61.6c40.1,41.1,60.1,90.3,60.1,147.7C1704,318.2,1684,367.4,1643.9,408.2
		z"/>
	<path class="st0" d="M230.5,308.7c-7.4-15.5-16.9-28.5-28.5-39.1c-11.6-10.6-24.5-20.7-38.8-30.1c-14.3-9.5-28.5-18.3-42.8-26.7
		c-14.3-8.3-27.1-16.7-38.5-25.2c-26.6-20.1-40-42.3-40-66.7V118c0-20.5,6.6-36.6,19.7-48.4c13.1-11.8,29-17.7,47.7-17.7
		c18.6,0,35.5,4.6,50.5,13.9c11,6.8,20.3,15.4,27.9,25.9l7.8-17.2c-20.6-26.3-48.3-39.4-83.3-39.4c-25.1,0-46.2,7.2-63.4,21.4
		c-17.1,14.3-25.7,35-25.7,62v4.1c0,17.4,4.9,33.4,14.8,48.1c9.9,14.7,22.3,26.9,37.1,36.5c14.8,9.7,31,20.1,48.5,31.3
		c17.5,11.2,33.7,21.9,48.5,32.2c14.8,10.2,27.2,23.4,37.1,39.4c9.9,16,14.8,33.7,14.8,53v3.5c0,30.9-10.5,55.6-31.4,74.2
		c-20.9,18.5-45.7,27.8-74.2,27.8c-28.5,0-52.4-6.9-71.6-20.6c-5.3-3.7-10.1-7.8-14.7-12.2l-7.3,16c23.7,22.4,53.3,33.5,89,33.5
		c36.1,0,66.5-10.8,91-32.5c24.5-21.6,36.8-50.8,36.8-87.5v-5.8C241.6,341.2,237.9,324.2,230.5,308.7z"/>
</g>
</svg>
