<svg xmlns="http://www.w3.org/2000/svg" xmlns:xlink="http://www.w3.org/1999/xlink" width="693" zoomAndPan="magnify" viewBox="0 0 519.75 519.750007" height="693" preserveAspectRatio="xMidYMid meet" version="1.0"><defs><clipPath id="7d23ae1bff"><path d="M 0 0 L 519.5 0 L 519.5 519.5 L 0 519.5 Z M 0 0 " clip-rule="nonzero"/></clipPath><clipPath id="4c1e4ed545"><path d="M 259.75 0 L 296.320312 28.851562 L 340.015625 12.714844 L 365.882812 51.453125 L 412.425781 49.609375 L 425.054688 94.445312 L 469.890625 107.074219 L 468.046875 153.617188 L 506.785156 179.484375 L 490.648438 223.179688 L 519.5 259.75 L 490.648438 296.320312 L 506.785156 340.015625 L 468.046875 365.882812 L 469.890625 412.425781 L 425.054688 425.054688 L 412.425781 469.890625 L 365.882812 468.046875 L 340.015625 506.785156 L 296.320312 490.648438 L 259.75 519.5 L 223.179688 490.648438 L 179.484375 506.785156 L 153.617188 468.046875 L 107.074219 469.890625 L 94.445312 425.054688 L 49.609375 412.425781 L 51.453125 365.882812 L 12.714844 340.015625 L 28.851562 296.320312 L 0 259.75 L 28.851562 223.179688 L 12.714844 179.484375 L 51.453125 153.617188 L 49.609375 107.074219 L 94.445312 94.445312 L 107.074219 49.609375 L 153.617188 51.453125 L 179.484375 12.714844 L 223.179688 28.851562 Z M 259.75 0 " clip-rule="nonzero"/></clipPath></defs><g clip-path="url(#7d23ae1bff)"><g clip-path="url(#4c1e4ed545)"><path fill="#5e42a6" d="M 0 0 L 519.5 0 L 519.5 519.5 L 0 519.5 Z M 0 0 " fill-opacity="1" fill-rule="nonzero"/></g></g></svg>